<svg version="1.1" xmlns="http://www.w3.org/2000/svg" xmlns:xlink="http://www.w3.org/1999/xlink" width="270.5" height="280.97568" viewBox="0,0,270.5,280.97568"><defs><linearGradient x1="141.39951" y1="26.75962" x2="141.39951" y2="111.56354" gradientUnits="userSpaceOnUse" id="color-1"><stop offset="0" stop-color="#0067bb"/><stop offset="1" stop-color="#00ba87"/></linearGradient><linearGradient x1="331.10049" y1="26.75962" x2="331.10049" y2="111.56354" gradientUnits="userSpaceOnUse" id="color-2"><stop offset="0" stop-color="#0067bb"/><stop offset="1" stop-color="#00ba87"/></linearGradient><linearGradient x1="240" y1="107.25" x2="240" y2="252.75" gradientUnits="userSpaceOnUse" id="color-3"><stop offset="0" stop-color="#0067bb"/><stop offset="1" stop-color="#00ba87"/></linearGradient><linearGradient x1="239" y1="249.5" x2="239" y2="312" gradientUnits="userSpaceOnUse" id="color-4"><stop offset="0" stop-color="#0067bb"/><stop offset="1" stop-color="#00ba87"/></linearGradient></defs><g transform="translate(-103.25,-36.52432)"><g data-paper-data="{&quot;isPaintingLayer&quot;:true}" fill-rule="nonzero" stroke-linejoin="miter" stroke-miterlimit="10" stroke-dasharray="" stroke-dashoffset="0" style="mix-blend-mode: normal"><path d="M195.25,111.56354l-86.5,-69.53922" fill="none" stroke="url(#color-1)" stroke-width="11" stroke-linecap="round"/><path d="M363.75,42.02433l-86.5,69.53922" data-paper-data="{&quot;index&quot;:null}" fill="none" stroke="url(#color-2)" stroke-width="11" stroke-linecap="round"/><path d="M130.5,252.75v-145.5h219v145.5z" fill="#032500" stroke="url(#color-3)" stroke-width="10.5" stroke-linecap="butt"/><path d="M152.25,162.06354v-18h22.90527v18z" fill="#ffcd00" stroke="none" stroke-width="10.5" stroke-linecap="butt"/><path d="M251.75,162.56354v-18h22.90526v18z" fill="#ffcd00" stroke="none" stroke-width="10.5" stroke-linecap="butt"/><path d="M224.65527,199.56354v18h-22.90527v-18z" data-paper-data="{&quot;index&quot;:null}" fill="#00ff2a" stroke="none" stroke-width="10.5" stroke-linecap="butt"/><path d="M173.47106,147.56354v-18h22.90526v18z" fill="#ffcd00" stroke="none" stroke-width="10.5" stroke-linecap="butt"/><path d="M272.97105,148.06354v-18h22.90526v18z" fill="#ffcd00" stroke="none" stroke-width="10.5" stroke-linecap="butt"/><path d="M245.87632,214.06354v18h-22.90526v-18z" data-paper-data="{&quot;index&quot;:null}" fill="#00ff2a" stroke="none" stroke-width="10.5" stroke-linecap="butt"/><path d="M193.34474,162.06354v-18h22.90527v18z" fill="#ffcd00" stroke="none" stroke-width="10.5" stroke-linecap="butt"/><path d="M292.84474,162.56354v-18h22.90526v18z" fill="#ffcd00" stroke="none" stroke-width="10.5" stroke-linecap="butt"/><path d="M265.75,199.56354v18h-22.90527v-18z" data-paper-data="{&quot;index&quot;:null}" fill="#00ff2a" stroke="none" stroke-width="10.5" stroke-linecap="butt"/><path d="M109.75,312v-62.5h258.5v62.5z" fill="#000000" stroke="url(#color-4)" stroke-width="11" stroke-linecap="butt"/><path d="M131.75,269.92857v-6.42857h20v6.42857z" fill="#ffcf00" stroke="none" stroke-width="11" stroke-linecap="butt"/><path d="M305.03571,260.21429h6.42857v20h-6.42857z" fill="#00fff0" stroke="none" stroke-width="11" stroke-linecap="butt"/><path d="M316.53571,260.21429h6.42857v34.5h-6.42857z" fill="#00fff0" stroke="none" stroke-width="11" stroke-linecap="butt"/><path d="M328.53571,260.21429h6.42857v13h-6.42857z" fill="#00fff0" stroke="none" stroke-width="11" stroke-linecap="butt"/><path d="M131.75,281.42857v-6.42857h20v6.42857z" fill="#ffcf00" stroke="none" stroke-width="11" stroke-linecap="butt"/><path d="M131.75,292.92857v-6.42857h20v6.42857z" fill="#ffcf00" stroke="none" stroke-width="11" stroke-linecap="butt"/><path d="M177.25,278.25c0,4.55635 -3.35786,8.25 -7.5,8.25c-4.14214,0 -7.5,-3.69365 -7.5,-8.25c0,-4.55635 3.35786,-8.25 7.5,-8.25c4.14214,0 7.5,3.69365 7.5,8.25z" fill="#00ff05" stroke="none" stroke-width="0" stroke-linecap="butt"/></g></g></svg>