<svg version="1.1" xmlns="http://www.w3.org/2000/svg" xmlns:xlink="http://www.w3.org/1999/xlink" width="270.5" height="280.97568" viewBox="0,0,270.5,280.97568"><defs><linearGradient x1="142.89951" y1="29.74746" x2="142.89951" y2="114.55138" gradientUnits="userSpaceOnUse" id="color-1"><stop offset="0" stop-color="#0067bb"/><stop offset="1" stop-color="#00ba87"/></linearGradient><linearGradient x1="332.60049" y1="29.74746" x2="332.60049" y2="114.55138" gradientUnits="userSpaceOnUse" id="color-2"><stop offset="0" stop-color="#0067bb"/><stop offset="1" stop-color="#00ba87"/></linearGradient><linearGradient x1="241.5" y1="110.23784" x2="241.5" y2="255.73784" gradientUnits="userSpaceOnUse" id="color-3"><stop offset="0" stop-color="#0067bb"/><stop offset="1" stop-color="#00ba87"/></linearGradient><linearGradient x1="240.5" y1="252.48784" x2="240.5" y2="314.98784" gradientUnits="userSpaceOnUse" id="color-4"><stop offset="0" stop-color="#0067bb"/><stop offset="1" stop-color="#00ba87"/></linearGradient></defs><g transform="translate(-104.75,-39.51216)"><g data-paper-data="{&quot;isPaintingLayer&quot;:true}" fill-rule="nonzero" stroke-linejoin="miter" stroke-miterlimit="10" stroke-dasharray="" stroke-dashoffset="0" style="mix-blend-mode: normal"><path d="M196.75,114.55138l-86.5,-69.53922" fill="none" stroke="url(#color-1)" stroke-width="11" stroke-linecap="round"/><path d="M365.25,45.01217l-86.5,69.53922" data-paper-data="{&quot;index&quot;:null}" fill="none" stroke="url(#color-2)" stroke-width="11" stroke-linecap="round"/><path d="M132,255.73784v-145.5h219v145.5z" fill="#032500" stroke="url(#color-3)" stroke-width="10.5" stroke-linecap="butt"/><path d="M153.75,165.05138v-18h22.90527v18z" fill="#ffcd00" stroke="none" stroke-width="10.5" stroke-linecap="butt"/><path d="M253.25,165.55138v-18h22.90526v18z" fill="#ffcd00" stroke="none" stroke-width="10.5" stroke-linecap="butt"/><path d="M226.15527,202.55138v18h-22.90527v-18z" data-paper-data="{&quot;index&quot;:null}" fill="#00ff2a" stroke="none" stroke-width="10.5" stroke-linecap="butt"/><path d="M174.97106,150.55138v-18h22.90526v18z" fill="#ffcd00" stroke="none" stroke-width="10.5" stroke-linecap="butt"/><path d="M274.47105,151.05138v-18h22.90526v18z" fill="#ffcd00" stroke="none" stroke-width="10.5" stroke-linecap="butt"/><path d="M247.37632,217.05138v18h-22.90526v-18z" data-paper-data="{&quot;index&quot;:null}" fill="#00ff2a" stroke="none" stroke-width="10.5" stroke-linecap="butt"/><path d="M194.84474,165.05138v-18h22.90527v18z" fill="#ffcd00" stroke="none" stroke-width="10.5" stroke-linecap="butt"/><path d="M294.34474,165.55138v-18h22.90526v18z" fill="#ffcd00" stroke="none" stroke-width="10.5" stroke-linecap="butt"/><path d="M267.25,202.55138v18h-22.90527v-18z" data-paper-data="{&quot;index&quot;:null}" fill="#00ff2a" stroke="none" stroke-width="10.5" stroke-linecap="butt"/><path d="M111.25,314.98784v-62.5h258.5v62.5z" fill="#000000" stroke="url(#color-4)" stroke-width="11" stroke-linecap="butt"/><path d="M133.25,272.91641v-6.42857h20v6.42857z" fill="#ffcf00" stroke="none" stroke-width="11" stroke-linecap="butt"/><path d="M306.53571,263.20213h6.42857v20h-6.42857z" fill="#00fff0" stroke="none" stroke-width="11" stroke-linecap="butt"/><path d="M318.03571,263.20213h6.42857v34.5h-6.42857z" fill="#00fff0" stroke="none" stroke-width="11" stroke-linecap="butt"/><path d="M330.03571,263.20213h6.42857v13h-6.42857z" fill="#00fff0" stroke="none" stroke-width="11" stroke-linecap="butt"/><path d="M133.25,284.41641v-6.42857h20v6.42857z" fill="#ffcf00" stroke="none" stroke-width="11" stroke-linecap="butt"/><path d="M133.25,295.91641v-6.42857h20v6.42857z" fill="#ffcf00" stroke="none" stroke-width="11" stroke-linecap="butt"/><path d="M178.75,281.23784c0,4.55635 -3.35786,8.25 -7.5,8.25c-4.14214,0 -7.5,-3.69365 -7.5,-8.25c0,-4.55635 3.35786,-8.25 7.5,-8.25c4.14214,0 7.5,3.69365 7.5,8.25z" fill="#00ff05" stroke="none" stroke-width="0" stroke-linecap="butt"/></g></g></svg>