<svg version="1.1" xmlns="http://www.w3.org/2000/svg" xmlns:xlink="http://www.w3.org/1999/xlink" width="13.70174" height="12.73739" viewBox="0,0,13.70174,12.73739"><g transform="translate(-233.20909,-173.6313)"><g data-paper-data="{&quot;isPaintingLayer&quot;:true}" fill="#855cd6" fill-rule="nonzero" stroke="none" stroke-width="0" stroke-linecap="butt" stroke-linejoin="miter" stroke-miterlimit="10" stroke-dasharray="" stroke-dashoffset="0" style="mix-blend-mode: normal"><path d="M238.52158,183.53134c0,1.56703 -1.18924,2.83735 -2.65624,2.83735c-1.467,0 -2.65625,-1.27032 -2.65625,-2.83735c0,-1.56703 1.18924,-2.83736 2.65625,-2.83736c1.467,0 2.65624,1.27033 2.65624,2.83736z"/><path d="M246.91083,183.07718c0,1.57597 -1.19603,2.85355 -2.67141,2.85355c-1.47538,0 -2.67141,-1.27757 -2.67141,-2.85355c0,-1.57597 1.19603,-2.85355 2.67141,-2.85355c1.47538,0 2.67141,1.27758 2.67141,2.85355z"/><path d="M235.95315,184.46906v-9.80003l2.32961,-1.03773v10.83776z"/><path d="M245.20431,182.45884l0.0402,-6.6967l1.54554,0.05349l-0.12649,6.40889z"/><path d="M236.26658,173.6313c1.38419,0 6.95346,0 8.59987,0c0.89285,0 1.92446,0.12002 1.92446,1.01287c0,0.41017 0,1.31674 0,1.31674h-10.83776c0,0 0,-1.23433 0,-1.66412c0,-0.27179 0.31343,-0.6655 0.31343,-0.6655z"/></g></g></svg>